<svg width="21" height="21" viewBox="0 0 21 21" fill="none" xmlns="http://www.w3.org/2000/svg">
<g opacity="0.5">
<path d="M0 17.85V3.15C0 2.31457 0.332112 1.51359 0.922852 0.922852C1.51359 0.332112 2.31457 0 3.15 0H13.8746C14.7017 0.0117814 15.4901 0.349675 16.0709 0.938232L16.072 0.937207L20.0628 4.92803H20.0618C20.6506 5.50893 20.9882 6.29807 21 7.12544V17.85C21 18.6854 20.6679 19.4864 20.0771 20.0771C19.4864 20.6679 18.6854 21 17.85 21H3.15C2.31457 21 1.51359 20.6679 0.922852 20.0771C0.332112 19.4864 0 18.6854 0 17.85ZM2.1 17.85C2.1 18.1285 2.2107 18.3955 2.40762 18.5924C2.60453 18.7893 2.87152 18.9 3.15 18.9H17.85C18.1285 18.9 18.3955 18.7893 18.5924 18.5924C18.7893 18.3955 18.9 18.1285 18.9 17.85V7.15518L18.8938 7.05161C18.8668 6.81294 18.7582 6.58955 18.5852 6.41997L18.577 6.41279V6.41177L14.58 2.41479C14.4104 2.24176 14.1871 2.1332 13.9484 2.10615L13.8448 2.1H3.15C2.87152 2.1 2.60453 2.2107 2.40762 2.40762C2.2107 2.60453 2.1 2.87152 2.1 3.15V17.85Z" fill="currentColor"/>
<path d="M14.6999 19.95V12.6H6.29992V19.95C6.29992 20.5299 5.82982 21 5.24992 21C4.67002 21 4.19992 20.5299 4.19992 19.95V12.6C4.19992 12.043 4.42133 11.5091 4.81516 11.1152C5.20898 10.7214 5.74297 10.5 6.29992 10.5H14.6999C15.2569 10.5 15.7909 10.7214 16.1847 11.1152C16.5785 11.5091 16.7999 12.043 16.7999 12.6V19.95C16.7999 20.5299 16.3298 21 15.7499 21C15.17 21 14.6999 20.5299 14.6999 19.95Z" fill="currentColor"/>
<path d="M4.19992 5.25V1.05C4.19992 0.470101 4.67002 0 5.24992 0C5.82982 0 6.29992 0.470101 6.29992 1.05V5.25H13.6499C14.2298 5.25 14.6999 5.7201 14.6999 6.3C14.6999 6.8799 14.2298 7.35 13.6499 7.35H6.29992C5.74297 7.35 5.20898 7.12859 4.81516 6.73477C4.42133 6.34094 4.19992 5.80695 4.19992 5.25Z" fill="currentColor"/>
</g>
</svg>
